<!--?xml version="1.0" standalone="no"?-->
              <svg id="sw-js-blob-svg" viewBox="0 0 100 100" xmlns="http://www.w3.org/2000/svg" version="1.1">
                    <defs> 
                        <linearGradient id="sw-gradient" x1="0" x2="1" y1="1" y2="0">
                            <stop id="stop1" stop-color="rgba(189, 218, 165, 1)" offset="0%"></stop>
                            <stop id="stop2" stop-color="rgba(189, 218, 165, 1)" offset="100%"></stop>
                        </linearGradient>
                    </defs>
                <path fill="url(#sw-gradient)" d="M27.7,-32.8C35.3,-26.8,40.2,-17.4,41.1,-7.9C42,1.5,38.8,11,33.8,19.3C28.8,27.6,22,34.6,14.3,35.9C6.7,37.2,-1.8,32.7,-9.9,29C-17.9,25.2,-25.6,22.2,-31.8,16.1C-38,10,-42.7,0.8,-41,-6.9C-39.3,-14.7,-31.1,-21,-23.2,-27C-15.3,-33,-7.7,-38.7,1.2,-40.2C10.1,-41.6,20.2,-38.9,27.7,-32.8Z" width="100%" height="100%" transform="translate(50 50)" stroke-width="0" style="transition: all 0.3s ease 0s;" stroke="url(#sw-gradient)"></path>
              </svg>