<!--?xml version="1.0" standalone="no"?-->
              <svg id="sw-js-blob-svg" viewBox="0 0 100 100" xmlns="http://www.w3.org/2000/svg" version="1.1">
                    <defs> 
                        <linearGradient id="sw-gradient" x1="0" x2="1" y1="1" y2="0">
                            <stop id="stop1" stop-color="rgba(189, 218, 165, 1)" offset="0%"></stop>
                            <stop id="stop2" stop-color="rgba(189, 218, 165, 1)" offset="100%"></stop>
                        </linearGradient>
                    </defs>
                <path fill="url(#sw-gradient)" d="M26.2,-29.9C33.1,-25.5,37.2,-16.4,37.9,-7.4C38.6,1.6,36,10.5,31.1,17C26.2,23.6,19,27.9,11.4,30.3C3.8,32.6,-4.1,32.9,-10.6,30.1C-17,27.3,-22,21.4,-27.9,14.5C-33.8,7.6,-40.6,-0.4,-40.7,-8.4C-40.8,-16.5,-34.1,-24.6,-26.2,-28.8C-18.3,-33.1,-9.1,-33.4,0.3,-33.8C9.7,-34.1,19.4,-34.4,26.2,-29.9Z" width="100%" height="100%" transform="translate(50 50)" stroke-width="0" style="transition: all 0.3s ease 0s;" stroke="url(#sw-gradient)"></path>
              </svg>